<svg width="258" height="48" viewBox="0 0 258 48" fill="none" xmlns="http://www.w3.org/2000/svg">
<path d="M179.054 33.0435C179.054 37.4335 182.627 40.9454 186.987 40.9454C191.376 40.9454 194.949 37.4032 194.949 33.0435C194.949 28.7141 191.376 25.1416 186.987 25.1416C182.627 25.1416 179.054 28.6838 179.054 33.0435ZM181.991 33.0738C181.991 30.1371 184.231 27.7453 186.987 27.7453C189.772 27.7453 192.012 30.1371 192.012 33.0738C192.012 35.9802 189.772 38.3417 186.987 38.3417C184.231 38.3417 181.991 35.9802 181.991 33.0738Z" fill="#037FD0"/>
<path d="M214.229 33.0435C214.229 28.7141 211.262 25.1416 206.721 25.1416C204.692 25.1416 202.694 25.8379 201.241 27.8967V26.0869C201.241 25.7487 200.967 25.4746 200.629 25.4746H198.917C198.578 25.4746 198.304 25.7487 198.304 26.0869V46.7819C198.304 47.12 198.578 47.3941 198.917 47.3941H200.629C200.967 47.3941 201.241 47.12 201.241 46.7819V38.1903C202.694 40.2491 204.692 40.9454 206.721 40.9454C211.262 40.9454 214.229 37.3729 214.229 33.0435ZM201.18 33.0435C201.211 29.9857 203.3 27.7453 206.358 27.7453C209.506 27.7453 211.293 30.1673 211.293 33.0435C211.293 35.9197 209.506 38.3417 206.358 38.3417C203.3 38.3417 201.211 36.1013 201.18 33.0435Z" fill="#037FD0"/>
<path d="M230.789 36.8507C230.564 36.617 230.196 36.6019 229.938 36.798C228.551 37.8494 227.06 38.3417 225.422 38.3417C222.062 38.3417 219.7 36.2527 219.791 33.316H232.107C232.445 33.316 232.721 33.0404 232.703 32.7027C232.441 27.5269 228.846 25.1416 224.998 25.1416C220.306 25.1416 216.854 28.6838 216.854 33.1041C216.854 37.4032 220.124 40.9454 225.392 40.9454C227.485 40.9454 229.762 40.3908 231.632 38.5413C231.86 38.3164 231.851 37.952 231.629 37.7217L230.789 36.8507ZM225.059 27.715C226.724 27.715 228.874 28.2903 229.691 31.0453H220.064C221.063 28.4114 223.273 27.715 225.059 27.715Z" fill="#037FD0"/>
<path d="M239.041 26.0869C239.041 25.7487 238.767 25.4746 238.429 25.4746H236.717C236.378 25.4746 236.104 25.7487 236.104 26.0869V40.0001C236.104 40.3383 236.378 40.6124 236.717 40.6124H238.429C238.767 40.6124 239.041 40.3383 239.041 40.0001V34.8903C239.041 28.4416 241.887 27.9572 242.886 27.9572C243.091 27.9572 243.299 27.9743 243.506 28.01C243.968 28.0898 244.491 27.7722 244.491 27.304V25.8783C244.491 25.6334 244.346 25.4076 244.115 25.3259C243.808 25.2173 243.483 25.1416 243.098 25.1416C241.221 25.1416 239.556 26.504 239.041 28.8958V26.0869Z" fill="#037FD0"/>
<path d="M256.099 28.8881C256.449 28.8108 256.661 28.448 256.52 28.1185C255.563 25.8832 253.641 25.1416 251.693 25.1416C248.696 25.1416 246.698 27.0792 246.698 29.6527C246.698 31.7417 248 33.0435 250.422 33.7701L252.45 34.4665C253.51 34.8298 254.357 35.3444 254.357 36.3738C254.357 37.5546 253.268 38.4326 251.754 38.4326C250.446 38.4326 249.269 37.8027 248.718 36.8741C248.552 36.5938 248.236 36.4041 247.919 36.4814L246.488 36.8309C246.155 36.9123 245.95 37.2546 246.078 37.5731C246.97 39.7898 249.27 40.9454 251.724 40.9454C254.66 40.9454 257.173 39.2803 257.173 36.4041C257.173 34.7995 256.416 33.0132 253.54 32.1352L251.36 31.4086C250.452 31.1059 249.544 30.5912 249.544 29.5921C249.544 28.5022 250.422 27.6545 251.784 27.6545C252.596 27.6545 253.409 27.8813 253.927 28.8256C254.075 29.0963 254.372 29.2696 254.673 29.203L256.099 28.8881Z" fill="#037FD0"/>
<path d="M151.87 26.3073C152.025 25.9062 151.729 25.4746 151.299 25.4746H149.529C149.273 25.4746 149.044 25.6338 148.955 25.8736L144.683 37.3729L140.411 25.8736C140.322 25.6338 140.093 25.4746 139.837 25.4746H138.067C137.637 25.4746 137.341 25.9062 137.496 26.3073L142.867 40.2206C142.958 40.4567 143.185 40.6124 143.438 40.6124H145.928C146.181 40.6124 146.408 40.4567 146.499 40.2206L151.87 26.3073Z" fill="#037FD0"/>
<path d="M167.547 36.8507C167.321 36.617 166.954 36.6019 166.696 36.798C165.309 37.8494 163.818 38.3417 162.18 38.3417C158.82 38.3417 156.458 36.2527 156.549 33.316H168.864C169.202 33.316 169.478 33.0404 169.461 32.7027C169.199 27.5269 165.604 25.1416 161.756 25.1416C157.064 25.1416 153.612 28.6838 153.612 33.1041C153.612 37.4032 156.882 40.9454 162.15 40.9454C164.242 40.9454 166.52 40.3908 168.39 38.5413C168.618 38.3164 168.609 37.952 168.387 37.7217L167.547 36.8507ZM161.817 27.715C163.482 27.715 165.632 28.2903 166.449 31.0453H156.821C157.82 28.4114 160.031 27.715 161.817 27.715Z" fill="#037FD0"/>
<path d="M175.741 19.3354C175.741 18.9973 175.467 18.7231 175.129 18.7231H173.417C173.078 18.7231 172.804 18.9973 172.804 19.3354V40.0001C172.804 40.3382 173.078 40.6123 173.417 40.6123H175.129C175.467 40.6123 175.741 40.3382 175.741 40.0001V19.3354Z" fill="#037FD0"/>
<path d="M114.673 30.0159C114.673 34.4966 111.706 38.1297 106.862 38.1297H103.138V21.902H106.862C111.706 21.902 114.673 25.5351 114.673 30.0159ZM117.761 30.0159C117.761 24.1727 113.643 19.4194 106.862 19.4194H100.612C100.274 19.4194 100 19.6935 100 20.0317V40C100 40.3382 100.274 40.6123 100.612 40.6123H106.862C113.643 40.6123 117.761 35.859 117.761 30.0159Z" fill="#037FD0"/>
<path d="M134.029 36.8507C133.803 36.617 133.436 36.6018 133.179 36.7994C131.81 37.8498 130.41 38.3417 128.772 38.3417C125.412 38.3417 123.05 36.2527 123.141 33.316H135.346C135.684 33.316 135.96 33.0404 135.944 32.7027C135.689 27.5269 132.196 25.1416 128.348 25.1416C123.656 25.1416 120.204 28.6838 120.204 33.1041C120.204 37.4032 123.474 40.9454 128.742 40.9454C130.834 40.9454 133.015 40.3909 134.873 38.542C135.1 38.3164 135.091 37.952 134.869 37.7217L134.029 36.8507ZM128.409 27.715C130.074 27.715 132.224 28.2903 133.041 31.0453H123.414C124.413 28.4114 126.623 27.715 128.409 27.715Z" fill="#037FD0"/>
<path d="M13.7682 6.78167C13.6886 6.78309 13.6095 6.76857 13.5356 6.73898C13.4617 6.70939 13.3945 6.66532 13.3379 6.60937C13.2812 6.55341 13.2364 6.4867 13.2059 6.41316C13.1755 6.33961 13.16 6.26072 13.1605 6.18112V1.21421C13.1605 1.13581 13.176 1.05817 13.206 0.985737C13.236 0.913304 13.28 0.847489 13.3354 0.79205C13.3908 0.736612 13.4566 0.692636 13.5291 0.662633C13.6015 0.63263 13.6792 0.617188 13.7576 0.617188C13.836 0.617188 13.9136 0.63263 13.986 0.662633C14.0585 0.692636 14.1243 0.736612 14.1797 0.79205C14.2351 0.847489 14.2791 0.913304 14.3091 0.985737C14.3391 1.05817 14.3546 1.13581 14.3546 1.21421V6.18112C14.3555 6.33825 14.2945 6.48943 14.1847 6.60185C14.0749 6.71428 13.9253 6.77889 13.7682 6.78167Z" fill="#9BA1A8"/>
<path d="M10.6515 8.6293C10.5472 8.62861 10.4449 8.6006 10.3548 8.54805L6.052 6.07519C5.98403 6.03599 5.92445 5.98379 5.87667 5.92156C5.82888 5.85934 5.79381 5.78831 5.77347 5.71253C5.75314 5.63675 5.74792 5.55771 5.75813 5.47992C5.76834 5.40213 5.79377 5.32711 5.83297 5.25915C5.87217 5.19118 5.92437 5.13161 5.9866 5.08382C6.04883 5.03603 6.11985 5.00097 6.19563 4.98063C6.27141 4.96029 6.35045 4.95508 6.42824 4.96528C6.50603 4.97549 6.58105 5.00092 6.64902 5.04012L10.9518 7.51298C11.0669 7.57825 11.157 7.67991 11.2081 7.80198C11.2591 7.92405 11.2682 8.05962 11.2338 8.18739C11.1994 8.31516 11.1236 8.4279 11.0182 8.50789C10.9128 8.58788 10.7838 8.63058 10.6515 8.6293Z" fill="#9BA1A8"/>
<path d="M17.1602 8.54805C17.0701 8.6006 16.9678 8.62861 16.8635 8.6293C16.7312 8.63058 16.6022 8.58788 16.4968 8.50789C16.3914 8.4279 16.3156 8.31516 16.2812 8.18739C16.2468 8.05962 16.2559 7.92405 16.3069 7.80198C16.358 7.67991 16.4481 7.57825 16.5632 7.51298L20.866 5.04012C20.934 5.00092 21.009 4.97549 21.0868 4.96528C21.1646 4.95508 21.2436 4.96029 21.3194 4.98063C21.3952 5.00097 21.4662 5.03603 21.5284 5.08382C21.5906 5.13161 21.6428 5.19118 21.682 5.25915C21.7212 5.32711 21.7467 5.40213 21.7569 5.47992C21.7671 5.55771 21.7619 5.63675 21.7415 5.71253C21.7212 5.78831 21.6861 5.85934 21.6383 5.92156C21.5906 5.98379 21.531 6.03599 21.463 6.07519L17.1602 8.54805Z" fill="#9BA1A8"/>
<path d="M8.63447 10.4062H6.86814C6.7098 10.4062 6.55795 10.3433 6.44598 10.2313C6.33402 10.1194 6.27112 9.96752 6.27112 9.80918C6.27112 9.65084 6.33402 9.49898 6.44598 9.38702C6.55795 9.27506 6.7098 9.21216 6.86814 9.21216H8.63447C8.79281 9.21216 8.94466 9.27506 9.05662 9.38702C9.16858 9.49898 9.23149 9.65084 9.23149 9.80918C9.23149 9.96752 9.16858 10.1194 9.05662 10.2313C8.94466 10.3433 8.79281 10.4062 8.63447 10.4062Z" fill="#9BA1A8"/>
<path d="M20.647 10.4062H18.8807C18.7223 10.4062 18.5705 10.3433 18.4585 10.2313C18.3466 10.1194 18.2836 9.96752 18.2836 9.80918C18.2836 9.65084 18.3466 9.49898 18.4585 9.38702C18.5705 9.27506 18.7223 9.21216 18.8807 9.21216H20.647C20.8053 9.21216 20.9572 9.27506 21.0692 9.38702C21.1811 9.49898 21.244 9.65084 21.244 9.80918C21.244 9.96752 21.1811 10.1194 21.0692 10.2313C20.9572 10.3433 20.8053 10.4062 20.647 10.4062Z" fill="#9BA1A8"/>
<path d="M11.0791 5.97979C10.9737 5.98001 10.8702 5.95234 10.779 5.8996C10.6877 5.84687 10.6121 5.77093 10.5597 5.67951L9.66952 4.14987C9.59035 4.01261 9.56895 3.84952 9.61002 3.69649C9.6511 3.54345 9.75129 3.413 9.88855 3.33383C10.0258 3.25466 10.1889 3.23326 10.3419 3.27433C10.495 3.31541 10.6254 3.41559 10.7046 3.55285L11.5948 5.09309C11.645 5.18351 11.6708 5.28541 11.6698 5.38882C11.6687 5.49223 11.6409 5.59359 11.5889 5.68298C11.5369 5.77237 11.4625 5.84672 11.3732 5.89875C11.2838 5.95078 11.1825 5.9787 11.0791 5.97979Z" fill="#9BA1A8"/>
<path d="M16.7362 5.8996C16.645 5.95234 16.5414 5.98001 16.4361 5.97979C16.3327 5.9787 16.2313 5.95078 16.142 5.89875C16.0526 5.84672 15.9783 5.77237 15.9263 5.68298C15.8743 5.59359 15.8464 5.49223 15.8453 5.38882C15.8443 5.28541 15.8701 5.18351 15.9203 5.09309L16.8105 3.55285C16.8897 3.41559 17.0202 3.31541 17.1732 3.27433C17.3262 3.23326 17.4893 3.25466 17.6266 3.33383C17.7638 3.413 17.864 3.54345 17.9051 3.69649C17.9462 3.84952 17.9248 4.01261 17.8456 4.14987L16.9554 5.67951C16.903 5.77093 16.8274 5.84687 16.7362 5.8996Z" fill="#9BA1A8"/>
<path d="M6.44764 14.6418C6.31534 14.643 6.18635 14.6003 6.08095 14.5203C5.97555 14.4404 5.89971 14.3276 5.86534 14.1998C5.83097 14.0721 5.84002 13.9365 5.89107 13.8144C5.94212 13.6924 6.03227 13.5907 6.14737 13.5254L10.4501 11.0526C10.5181 11.0134 10.5931 10.9879 10.6709 10.9777C10.7487 10.9675 10.8278 10.9727 10.9035 10.9931C10.9793 11.0134 11.0503 11.0485 11.1126 11.0963C11.1748 11.1441 11.227 11.2036 11.2662 11.2716C11.3054 11.3396 11.3308 11.4146 11.341 11.4924C11.3512 11.5702 11.346 11.6492 11.3257 11.725C11.3053 11.8008 11.2703 11.8718 11.2225 11.934C11.1747 11.9962 11.1151 12.0484 11.0472 12.0876L6.74439 14.5605C6.65427 14.613 6.55196 14.6411 6.44764 14.6418Z" fill="#9BA1A8"/>
<path d="M21.4341 14.5203C21.3287 14.6003 21.1997 14.643 21.0674 14.6418C20.9631 14.6411 20.8607 14.613 20.7706 14.5605L16.4678 12.0876C16.3999 12.0484 16.3403 11.9962 16.2925 11.934C16.2447 11.8718 16.2097 11.8008 16.1893 11.725C16.169 11.6492 16.1638 11.5702 16.174 11.4924C16.1842 11.4146 16.2096 11.3396 16.2488 11.2716C16.288 11.2036 16.3402 11.1441 16.4025 11.0963C16.4647 11.0485 16.5357 11.0134 16.6115 10.9931C16.6873 10.9727 16.7663 10.9675 16.8441 10.9777C16.9219 10.9879 16.9969 11.0134 17.0649 11.0526L21.3676 13.5254C21.4827 13.5907 21.5729 13.6924 21.6239 13.8144C21.675 13.9365 21.684 14.0721 21.6497 14.1998C21.6153 14.3276 21.5395 14.4404 21.4341 14.5203Z" fill="#9BA1A8"/>
<path fill-rule="evenodd" clip-rule="evenodd" d="M11.8224 29.1411C12.0634 29.3821 12.0634 29.773 11.8224 30.014L9.90702 31.9294L11.8224 33.8448C12.0634 34.0858 12.0634 34.4767 11.8224 34.7177L10.8621 35.678C10.6211 35.9191 10.2302 35.9191 9.98914 35.678L6.67702 32.3659C6.43596 32.1248 6.43596 31.734 6.67702 31.4929L9.98914 28.1808C10.2302 27.9397 10.6211 27.9397 10.8621 28.1808L11.8224 29.1411Z" fill="white"/>
<path fill-rule="evenodd" clip-rule="evenodd" d="M15.7301 29.1411C15.489 29.3821 15.489 29.773 15.7301 30.014L17.6454 31.9294L15.7301 33.8448C15.489 34.0858 15.489 34.4767 15.7301 34.7177L16.6903 35.678C16.9314 35.9191 17.3222 35.9191 17.5633 35.678L20.8754 32.3659C21.1165 32.1248 21.1165 31.734 20.8754 31.4929L17.5633 28.1808C17.3222 27.9397 16.9314 27.9397 16.6903 28.1808L15.7301 29.1411Z" fill="white"/>
<path fill-rule="evenodd" clip-rule="evenodd" d="M14.2148 10.4142C14.6809 10.2378 15.0123 9.7872 15.0123 9.25923C15.0123 8.57739 14.4596 8.02466 13.7778 8.02466C13.0959 8.02466 12.5432 8.57739 12.5432 9.25923C12.5432 9.78721 12.8746 10.2378 13.3408 10.4142L12.6598 16.5432H4.20988C2.43711 16.5432 1 17.9803 1 19.7531V41.358C1 42.2444 1.35928 43.0469 1.94015 43.6278C2.52102 44.2086 3.32349 44.5679 4.20988 44.5679H23.3457L23.3664 44.5678C25.1296 44.5567 26.5556 43.1239 26.5556 41.358L26.5556 19.7531C26.5556 17.9803 25.1185 16.5432 23.3457 16.5432H14.8958L14.2148 10.4142ZM23.3457 41.9753C23.6866 41.9753 23.963 41.6989 23.963 41.358V22H3.59259V41.358C3.59259 41.6989 3.86896 41.9753 4.20988 41.9753H23.3457ZM4.82722 19.1673C4.82722 19.5082 4.55085 19.7846 4.20994 19.7846C3.86902 19.7846 3.59265 19.5082 3.59265 19.1673C3.59265 18.8264 3.86902 18.55 4.20994 18.55C4.55085 18.55 4.82722 18.8264 4.82722 19.1673ZM6.67907 19.7846C7.01999 19.7846 7.29636 19.5082 7.29636 19.1673C7.29636 18.8264 7.01999 18.55 6.67907 18.55C6.33815 18.55 6.06179 18.8264 6.06179 19.1673C6.06179 19.5082 6.33815 19.7846 6.67907 19.7846ZM13.0062 19.1665C13.0062 18.8269 13.2816 18.5515 13.6212 18.5515H23.3912C23.7309 18.5515 24.0062 18.8269 24.0062 19.1665C24.0062 19.5062 23.7309 19.7815 23.3912 19.7815H13.6212C13.2816 19.7815 13.0062 19.5062 13.0062 19.1665Z" fill="white"/>
<path d="M33.4818 34.7272C33.1674 34.7887 32.9491 35.0822 33.0103 35.3967C33.7083 38.9857 37.2362 41.0668 41.0926 41.0668C44.813 41.0668 48.6846 39.1007 48.6846 34.6544C48.6543 32.7186 47.8074 29.8754 43.0586 28.3933L40.8204 27.6069C38.7031 26.881 38.5518 25.8828 38.5518 25.3384C38.5518 23.947 39.671 23.3723 41.1228 23.3723C41.9119 23.3723 43.1904 23.5681 44.0998 25.1707C44.2758 25.4807 44.6593 25.627 44.9781 25.4676L47.6856 24.1138C47.9757 23.9688 48.1062 23.6226 47.9629 23.3317C46.6283 20.6215 44.197 19.2285 41.1228 19.2285C36.979 19.2285 33.9846 21.5878 33.9846 25.3989C33.9846 27.1532 34.6802 30.0872 39.3685 31.6902L41.6673 32.4767C43.6636 33.1723 44.1173 33.9285 44.1173 34.7452C44.1173 36.318 42.6049 36.923 40.9414 36.923C39.1704 36.923 37.9149 36.0886 37.2852 34.5524C37.164 34.2567 36.8597 34.0663 36.546 34.1276L33.4818 34.7272Z" fill="white"/>
<path fill-rule="evenodd" clip-rule="evenodd" d="M88.2653 39.383C86.5506 40.4958 84.5051 41.1421 82.3086 41.1421C76.2573 41.1421 71.3518 36.2366 71.3518 30.1853C71.3518 24.134 76.2573 19.2285 82.3086 19.2285C88.3599 19.2285 93.2654 24.134 93.2654 30.1853C93.2654 32.4777 92.5614 34.6056 91.3579 36.3647L92.5784 37.5853C92.8195 37.8263 92.8195 38.2172 92.5784 38.4583L90.396 40.6407C90.1549 40.8817 89.7641 40.8817 89.523 40.6407L88.2653 39.383ZM84.8595 35.9772C84.0792 36.3214 83.2162 36.5125 82.3086 36.5125C78.8142 36.5125 75.9815 33.6797 75.9815 30.1853C75.9815 26.6909 78.8142 23.8581 82.3086 23.8581C85.803 23.8581 88.6358 26.6909 88.6358 30.1853C88.6358 31.1921 88.4006 32.144 87.9822 32.9891L86.3742 31.3811C86.1332 31.14 85.7423 31.14 85.5013 31.3811L83.3188 33.5635C83.0778 33.8046 83.0778 34.1954 83.3188 34.4365L84.8595 35.9772Z" fill="white"/>
<path d="M68.2494 40.7341C68.5903 40.7341 68.8667 40.4577 68.8667 40.1168V20.1786C68.8667 19.8376 68.5903 19.5613 68.2494 19.5613H64.7957C64.4548 19.5613 64.1784 19.8376 64.1784 20.1786V28.7563H56.1327V20.1786C56.1327 19.8376 55.8563 19.5613 55.5154 19.5613H52.0617C51.7208 19.5613 51.4444 19.8376 51.4444 20.1786V40.1168C51.4444 40.4577 51.7208 40.7341 52.0617 40.7341H55.5154C55.8563 40.7341 56.1327 40.4577 56.1327 40.1168V32.4767H64.1784V40.1168C64.1784 40.4577 64.4548 40.7341 64.7957 40.7341H68.2494Z" fill="white"/>
</svg>
