<svg id="Layer_1" data-name="Layer 1" xmlns="http://www.w3.org/2000/svg" viewBox="0 0 100 173.23"><defs><style>.cls-1{fill:#f77746;}.cls-2{fill:#00c6f4;}</style></defs><title>all-shq-logos-2017</title><path class="cls-1" d="M49.63,23.08a2.24,2.24,0,0,1-2.24-2.24V2.24a2.24,2.24,0,1,1,4.48,0v18.6A2.24,2.24,0,0,1,49.63,23.08Z"/><path class="cls-1" d="M38.37,30a2.23,2.23,0,0,1-1.12-.3L21.14,20.4a2.24,2.24,0,0,1,2.24-3.88l16.11,9.3A2.24,2.24,0,0,1,38.37,30Z"/><path class="cls-1" d="M30.82,36.66H24.15a2.24,2.24,0,0,1,0-4.48h6.67A2.24,2.24,0,0,1,30.82,36.66Z"/><path class="cls-1" d="M75.35,35.92H68.68a2.24,2.24,0,0,1,0-4.48h6.66A2.24,2.24,0,0,1,75.35,35.92Z"/><path class="cls-1" d="M58.9,19.71A2.24,2.24,0,0,1,57,16.36l3.33-5.77a2.24,2.24,0,1,1,3.88,2.24l-3.33,5.77A2.24,2.24,0,0,1,58.9,19.71Z"/><path class="cls-1" d="M40,20.08A2.24,2.24,0,0,1,38,19l-3.33-5.77A2.24,2.24,0,0,1,38.57,11l3.33,5.77A2.24,2.24,0,0,1,40,20.08Z"/><path class="cls-1" d="M22.63,52.52a2.24,2.24,0,0,1-1.12-4.18L37.62,39a2.24,2.24,0,1,1,2.24,3.88l-16.11,9.3A2.23,2.23,0,0,1,22.63,52.52Z"/><path class="cls-1" d="M77.74,51.88a2.23,2.23,0,0,1-1.12-.3l-16.11-9.3a2.24,2.24,0,1,1,2.24-3.88l16.11,9.3A2.24,2.24,0,0,1,77.74,51.88Z"/><path class="cls-1" d="M61.26,29.37a2.24,2.24,0,0,1-1.12-4.18l16.11-9.3a2.24,2.24,0,1,1,2.24,3.88l-16.11,9.3A2.23,2.23,0,0,1,61.26,29.37Z"/><path class="cls-2" d="M100,76.53V65.77a6,6,0,0,1-6-6s0,0,0-.07H86s0,0,0,.07a6,6,0,1,1-11.94,0s0,0,0-.07H66s0,0,0,.07a6,6,0,0,1-8.28,5.51,6.54,6.54,0,0,1-3.65-5.45S52.39,44,51.69,37.5h0a5.21,5.21,0,0,0,1.52-1.1,3.87,3.87,0,0,0,1.44-3.12A4.46,4.46,0,0,0,53,29.73,4.34,4.34,0,0,0,47.84,29a5,5,0,0,0-2.56,4.23,4.23,4.23,0,0,0,1.44,3.12,4.94,4.94,0,0,0,1.73,1.12h0C47.75,44.07,46,59.82,46,59.85a6.75,6.75,0,0,1-2.66,4.92,6,6,0,0,1-9.26-5s0,0,0-.07h-8s0,0,0,.07a6,6,0,1,1-11.94,0s0,0,0-.07h-8s0,0,0,.07a6,6,0,0,1-6,6H0V76.53H0.14a6,6,0,0,1,0,11.94H0V99.22H0.14a6,6,0,1,1,0,11.94H0V121.9H0.14a6,6,0,1,1,0,11.94H0v10.77H0.14a6,6,0,0,1,0,11.94H0v10.77H0.14a6,6,0,0,1,6,6h8a6,6,0,0,1,11.94,0h8a6,6,0,0,1,11.94,0h8a6,6,0,0,1,11.94,0h8a6,6,0,0,1,11.94,0h8a6,6,0,0,1,6-6V156.5a6,6,0,0,1,0-11.91V133.82a6,6,0,0,1,0-11.91V111.13a6,6,0,0,1,0-11.91V88.44A6,6,0,0,1,100,76.53ZM87.64,156.31a2.5,2.5,0,0,1-2.5,2.5H61.78V134.7a1,1,0,0,0-1-1H39.07a1,1,0,0,0-1,1v24.11H14.86a2.5,2.5,0,0,1-2.5-2.5V75.23a2.5,2.5,0,0,1,2.5-2.5H85.14a2.5,2.5,0,0,1,2.5,2.5v81.07Z"/><rect class="cls-2" x="28.01" y="87.15" width="43.52" height="9.71" rx="0.63" ry="0.63"/><rect class="cls-2" x="28.01" y="110.36" width="43.52" height="9.71" rx="0.63" ry="0.63"/></svg>